# xmcd
#
# Track frame offsets:
#	150
#	14477
#	28285
#	51249
#	66920
#	85040
#	100757
#	112736
#	125176
#	140663
#	154430
#	168019
#
# Disc length: 2518 seconds
#
# Revision: 1
# Processed by: cddbd v1.5.2PL0 Copyright (c) Steve Scherf et al.
# Submitted via: audiograbber 1.83.01
#
DISCID=a309d40c
DTITLE=Giorgio Cordini - Reno Brandoni - Anema e Corde
DYEAR=2008
DGENRE=Blues
TTITLE0=Aspettandola
TTITLE1=Mediterranea
TTITLE2=Se avessi tempo
TTITLE3=Danza in Lamosa
TTITLE4=Redenta
TTITLE5=Anna
TTITLE6=Jack e Vacchi
TTITLE7=A fa 'l patos
TTITLE8=Sogna me
TTITLE9=Impronte
TTITLE10=Blues per un re minore
TTITLE11=John Barleycorn must die
EXTD=
EXTT0=
EXTT1=
EXTT2=
EXTT3=
EXTT4=
EXTT5=
EXTT6=
EXTT7=
EXTT8=
EXTT9=
EXTT10=
EXTT11=
PLAYORDER=
